<?xml version="1.0" encoding="UTF-8" standalone="no"?>
<svg
   xmlns:dc="http://purl.org/dc/elements/1.1/"
   xmlns:cc="http://creativecommons.org/ns#"
   xmlns:rdf="http://www.w3.org/1999/02/22-rdf-syntax-ns#"
   xmlns:svg="http://www.w3.org/2000/svg"
   xmlns="http://www.w3.org/2000/svg"
   xmlns:sodipodi="http://sodipodi.sourceforge.net/DTD/sodipodi-0.dtd"
   xmlns:inkscape="http://www.inkscape.org/namespaces/inkscape"
   width="816.35388"
   height="244.05"
   version="1.1"
   id="svg10"
   sodipodi:docname="energy.svg"
   inkscape:version="0.92.3 (2405546, 2018-03-11)">
  <metadata
     id="metadata16">
    <rdf:RDF>
      <cc:Work
         rdf:about="">
        <dc:format>image/svg+xml</dc:format>
        <dc:type
           rdf:resource="http://purl.org/dc/dcmitype/StillImage" />
        <dc:title />
      </cc:Work>
    </rdf:RDF>
  </metadata>
  <defs
     id="defs14" />
  <sodipodi:namedview
     pagecolor="#ffffff"
     bordercolor="#666666"
     borderopacity="1"
     objecttolerance="10"
     gridtolerance="10"
     guidetolerance="10"
     inkscape:pageopacity="0"
     inkscape:pageshadow="2"
     inkscape:window-width="1362"
     inkscape:window-height="732"
     id="namedview12"
     showgrid="false"
     fit-margin-top="0"
     fit-margin-left="0"
     fit-margin-right="0"
     fit-margin-bottom="0"
     inkscape:zoom="1.5614241"
     inkscape:cx="156.85072"
     inkscape:cy="87.888595"
     inkscape:window-x="256"
     inkscape:window-y="1096"
     inkscape:window-maximized="0"
     inkscape:current-layer="svg10" />
  <path
     d="m 11.17983,229.025 q 0,0 0,0 0,0 2.26945,0.3847 2.26947,0.3847 5.52255,1.3806 3.25308,0.9959 8.29154,1.6153 5.03847,0.6194 12.24791,0.6194 7.20945,0 16.34537,-0.2674 9.13592,-0.2674 17.81,-1.46234 8.67408,-1.19496 18.99194,-3.13232 10.31786,-1.93738 21.09726,-3.84274 10.77942,-1.9053 19.76681,-4.4886 8.98742,-2.58333 15.90505,-6.028 6.91763,-3.4446 13.7028,-7.8744 6.78519,-4.42983 14.55738,-9.2546 7.77218,-4.8248 14.54297,-8.6863 6.77075,-3.8615 13.02911,-8.19194 6.25839,-4.33046 11.18896,-7.81076 4.93055,-3.4804 8.84565,-7.23544 3.91513,-3.75506 8.56909,-7.909 4.65399,-4.15396 9.98923,-9.29006 5.33523,-5.136 10.98208,-10.98203 5.64682,-5.84601 11.15878,-11.59057 5.51197,-5.7446 10.32401,-11.51905 4.81206,-5.77445 9.52856,-10.79605 4.71653,-5.02146 9.10535,-10.52634 4.38883,-5.50486 9.79845,-12.39642 5.40962,-6.89154 11.9648,-14.3487 6.55514,-7.45714 13.26254,-14.16454 6.7074,-6.7074 13.02713,-12.01514 6.31973,-5.30766 11.63739,-9.15943 5.31769,-3.85173 9.64569,-6.77053 4.32803,-2.9188 9.6358,-5.3983 5.30775,-2.47954 10.87271,-4.03936 5.56498,-1.55984 10.61808,-2.18974 5.05313,-0.6299 10.3244,-0.6299 5.2713,0 9.38016,0.256 4.1089,0.25596 7.4751,0.7225 3.36623,0.46657 6.4559,1.40395 3.0897,0.93745 6.7037,2.5744 3.614,1.63695 7.4003,4.62518 3.78625,2.98817 8.1902,6.43027 4.40385,3.44217 9.3298,7.38296 4.92604,3.94074 10.6781,9.73484 5.7521,5.7941 10.6493,11.63504 4.8972,5.84096 8.3477,10.2843 3.4505,4.44342 6.84555,9.20506 3.39505,4.7617 7.12482,9.54683 3.72973,4.78517 7.60247,9.95297 3.87266,5.1677 8.32752,11.2625 4.45477,6.0948 9.48204,11.8284 5.02736,5.73366 9.8172,10.5235 4.78987,4.78987 9.60994,8.9301 4.82013,4.1402 8.51216,8.0121 3.692,3.8719 8.67033,7.7362 4.97827,3.8644 9.74677,7.6792 4.7685,3.81484 10.1575,7.18056 5.389,3.36574 12.2127,6.25124 6.82365,2.8855 12.6079,6.28123 5.78417,3.39577 10.62,6.28077 4.8358,2.885 9.25395,4.877 4.41815,1.992 8.65069,4.7904 4.23261,2.7984 10.3844,5.3633 6.15186,2.5649 12.4953,4.5127 6.34346,1.9478 11.66046,3.38677 5.317,1.43896 10.6112,2.62633 5.29414,1.1874 9.12306,2.14466 3.82884,0.95728 7.63084,1.90774 3.802,0.9504 9.4196,1.3107 5.6176,0.3603 12.5215,0.8603 6.90395,0.5 13.12593,0.5 6.22193,0 11.94861,0 5.72666,0 10.56122,0 4.83454,0 9.14008,0 4.3056,0 9.10486,-0.8937 4.7993,-0.89365 11.3696,-1.86265 6.5703,-0.96899 11.01943,-2.43565 4.44922,-1.4667 4.96127,-1.63735 l 0.512,-0.17065"
     id="path4"
     inkscape:connector-curvature="0"
     style="fill:none;stroke:#2a37db;stroke-width:7.55905512;stroke-linecap:round;stroke-miterlimit:4;stroke-dasharray:none;stroke-opacity:1" />
  <path
     d="m 129.66756,159.13622 q 0,0 2.03238,-1.19343 2.03237,-1.19346 6.43723,-4.29156 4.40487,-3.09804 10.63864,-7.94645 6.23375,-4.84841 14.77528,-12.28055 8.54153,-7.43215 18.10594,-16.55171 9.56441,-9.11949 17.54224,-17.545366 7.97781,-8.425775 13.78796,-15.158122 5.81015,-6.732328 9.72887,-12.074373 3.91877,-5.342046 6.60688,-8.969713 2.68812,-3.627609 4.47877,-6.364145 1.79069,-2.736537 3.64882,-5.039247 1.85813,-2.302739 3.24803,-4.636154 l 1.38988,-2.333492"
     id="path6"
     inkscape:connector-curvature="0"
     style="fill:none;stroke:#2a37db;stroke-width:7.3241086;stroke-linecap:round;stroke-miterlimit:4;stroke-dasharray:none;stroke-opacity:1" />
  <g
     id="g3824"
     transform="matrix(0.15820748,0,0,0.15820748,54.948866,17.164542)">
    <g
       id="g3784"
       style="stroke:#000000;stroke-width:24"
       transform="matrix(0.1,0,0,0.1,48.673516,1095.2698)">
      <circle
         id="circle3780"
         cx="0"
         cy="0"
         style="fill:#ffffff;fill-opacity:1;stroke:#2a37db;stroke-width:191.11750793;stroke-miterlimit:4;stroke-dasharray:none;stroke-opacity:1"
         r="2376" />
      <path
         id="path3782"
         d="m -1643,-1716 155,158 m -550,2364 c 231,231 538,195 826,202 m -524,-2040 c -491,351 -610,1064 -592,1060 m 1216,-1008 c -51,373 84,783 364,1220 m -107,-2289 c 157,-157 466,-267 873,-329 m -528,4112 c -50,132 -37,315 -8,510 m 62,-3883 c 282,32 792,74 1196,303 M 336,1308 c 310,173 649,247 1060,180 M 1056,-520 C 814,-186 522,125 184,416 m 1109,-2119 c -111,-207 -296,-375 -499,-534 m 1146,1281 c 100,3 197,44 290,141 m -438,495 c 158,297 181,718 204,1140"
         inkscape:connector-curvature="0"
         style="fill:#ffffff;fill-opacity:1;stroke:#2a37db;stroke-width:119.44844818;stroke-linecap:square;stroke-miterlimit:4;stroke-dasharray:none;stroke-opacity:1" />
    </g>
    <path
       id="path3786"
       d="m -113.72648,925.26981 c 24.299996,-15.3 49.799996,-30.3 85.599996,-42.4 14.1,11.7 25.2999995,30.7 37.1999995,49.2 -28.7999995,27.49999 -56.1999995,54.39999 -72.3999995,75.59999 -27.4,-2.5 -40.999996,-0.2 -73.999996,-6 0.3,-24.4 8.4,-49.89999 23.6,-76.39999 z m 290.4,-4 c 27.1,24.8 53.7,49.79999 72.4,78.79999 -5.5,26.2 -10.5,55.3 -18,70.4 -23.4,-3.5 -53.6,-12.5 -82,-20 -13.8,-35.7 -23.1,-62.5 -34,-92.4 21,-15.59999 41.7,-29.59999 61.6,-36.79999 z m -327.3,303.29999 a 237.6,237.6 0 0 1 -37.8,-139.2 l 5.9,-0.7 c 5.4,34.2 12.4,67.4 31.1,92.8 -3.6,17.9 -0.2,32.3 5.1,45.8 z m 119.699996,-112.5 c 36.4999995,6 71.7,12 106,18 10.6,33.3 12,66.7 15.6,100 -26.3,21.8 -62.5,28.7 -94.4000005,42 -37.1999995,-24 -52.2999995,-50.8 -73.5999995,-76.8 12.2,-28.1 25.7,-56.1 46.4,-83.2 z m 301.300004,67.8 a 237.6,237.6 0 0 1 -92.5,114.7 l -11.6,-0.5 c 8.4,-12.7 11.4,-29.7 11.8,-48.8 23.2,-11.1 46.4,-46.3 69.6,-77.2 8.6,3 15.9,7.2 22.7,11.8 z m -228.700004,152.7 a 237.6,237.6 0 0 1 -99.3,-25.1 c 19.9,7.4 36.7,14.3 54.1999995,8.3 5.3,7.5 17.6000005,13.4 45.1000005,16.8 z"
       style="fill:#2a37db;fill-opacity:1;stroke-width:47.77937698;stroke-miterlimit:4;stroke-dasharray:none"
       inkscape:connector-curvature="0" />
  </g>
  <path
     style="fill:none;stroke:#2a37db;stroke-width:6.85565567;stroke-linecap:round;stroke-linejoin:round;stroke-miterlimit:4;stroke-dasharray:none;stroke-opacity:1"
     d="m 193.92447,55.368315 49.46451,-11.541309 -1.2466,51.287604"
     id="path916"
     inkscape:connector-curvature="0" />
</svg>
